<svg width="280" height="210" viewBox="0 0 280 210" fill="none" xmlns="http://www.w3.org/2000/svg">
<rect width="280" height="210" fill="#5D2887"/>
<path d="M71.1185 51C67.7561 50.9998 64.9997 53.748 65 57.1123V153.544C64.9987 156.909 67.7518 159.669 71.1185 159.669H208.881C212.248 159.669 215.002 156.909 215 153.544V57.1123C215 53.7481 212.244 50.9998 208.881 51H71.1185V51ZM87.4266 65.6491H192.535L139.987 111.561L87.4266 65.6491ZM202.763 72.9609V140.789L164.334 106.534L202.763 72.9609ZM77.2373 72.9991L115.825 106.719L77.2373 141.121V72.9991V72.9991ZM155.051 114.643L191.61 147.24H88.7665L125.115 114.834L135.949 124.303C138.246 126.308 141.703 126.308 144 124.303L155.051 114.643V114.643Z" fill="white"/>
</svg>
