<svg width="200" height="240" viewBox="0 0 200 240" fill="none" xmlns="http://www.w3.org/2000/svg">
<g clip-path="url(#clip0_2_2)">
<path d="M152.806 147.809H130.581V113.003C130.581 104.703 130.433 94.018 119.022 94.018C107.446 94.018 105.675 103.061 105.675 112.398V147.807H83.4496V76.2304H104.786V86.0121H105.085C109.435 78.5732 117.525 74.1303 126.136 74.45C148.662 74.45 152.816 89.2672 152.816 108.543L152.806 147.809ZM58.3721 66.4464C51.2489 66.4477 45.4734 60.6741 45.4721 53.5508C45.4709 46.4275 51.2443 40.6519 58.3674 40.6506C65.4906 40.6493 71.2661 46.4229 71.2674 53.5462C71.268 56.9669 69.9097 60.2478 67.4914 62.6671C65.0731 65.0863 61.7927 66.4458 58.3721 66.4464ZM69.4847 147.809H47.2363V76.2304H69.4847V147.809ZM163.887 20.0107H36.0681C30.0271 19.9425 25.0731 24.7816 24.9994 30.8226V159.174C25.0706 165.218 30.0242 170.062 36.0681 169.999H163.887C169.943 170.074 174.916 165.23 174.999 159.174V30.8133C174.913 24.7604 169.94 19.9216 163.887 20.0004" fill="#0A66C2"/>
</g>
<path d="M22.0391 239V214.729H27.1855V234.75H36.0176V239H22.0391ZM49.3154 239H38.2754V236.078L41.2305 234.717V219.012L38.2754 217.65V214.729H49.3154V217.65L46.3604 219.012V234.717L49.3154 236.078V239ZM73.9854 239H67.4609L57.915 220.639H57.7656C57.832 221.491 57.8874 222.338 57.9316 223.179C57.9759 223.898 58.0091 224.656 58.0312 225.453C58.0645 226.239 58.0811 226.947 58.0811 227.578V239H53.4824V214.729H59.9736L69.5029 232.907H69.6025C69.5693 232.066 69.5306 231.236 69.4863 230.417C69.4753 230.063 69.4587 229.703 69.4365 229.338C69.4255 228.962 69.4144 228.591 69.4033 228.226C69.3923 227.849 69.3812 227.49 69.3701 227.146C69.3701 226.803 69.3701 226.493 69.3701 226.217V214.729H73.9854V239ZM98.6055 239H92.7617L87.1836 228.906L85.2578 230.334V239H80.1113V214.729H85.2578V226.416L87.2832 222.979L92.8281 214.729H98.5391L90.7861 225.669L98.6055 239ZM115.639 239H101.66V214.729H115.639V218.945H106.807V224.274H115.024V228.491H106.807V234.75H115.639V239ZM139.495 226.632C139.495 228.679 139.213 230.478 138.648 232.027C138.095 233.566 137.287 234.855 136.225 235.896C135.173 236.925 133.878 237.7 132.34 238.22C130.812 238.74 129.069 239 127.11 239H120.719V214.729H127.824C129.606 214.729 131.211 214.983 132.639 215.492C134.077 216.001 135.306 216.759 136.324 217.767C137.342 218.763 138.123 220.002 138.665 221.485C139.218 222.968 139.495 224.684 139.495 226.632ZM134.282 226.765C134.282 225.414 134.144 224.252 133.867 223.278C133.602 222.293 133.209 221.48 132.688 220.838C132.179 220.196 131.549 219.72 130.796 219.41C130.054 219.1 129.202 218.945 128.239 218.945H125.865V234.75H127.758C129.927 234.75 131.554 234.086 132.639 232.758C133.734 231.43 134.282 229.432 134.282 226.765ZM153.274 239H142.234V236.078L145.189 234.717V219.012L142.234 217.65V214.729H153.274V217.65L150.319 219.012V234.717L153.274 236.078V239ZM177.944 239H171.42L161.874 220.639H161.725C161.791 221.491 161.846 222.338 161.891 223.179C161.935 223.898 161.968 224.656 161.99 225.453C162.023 226.239 162.04 226.947 162.04 227.578V239H157.441V214.729H163.933L173.462 232.907H173.562C173.528 232.066 173.49 231.236 173.445 230.417C173.434 230.063 173.418 229.703 173.396 229.338C173.384 228.962 173.373 228.591 173.362 228.226C173.351 227.849 173.34 227.49 173.329 227.146C173.329 226.803 173.329 226.493 173.329 226.217V214.729H177.944V239Z" fill="#0A66C2"/>
<defs>
<clipPath id="clip0_2_2">
<rect width="150" height="150" fill="white" transform="translate(25 20)"/>
</clipPath>
</defs>
</svg>
