<svg width="280" height="210" viewBox="0 0 280 210" fill="none" xmlns="http://www.w3.org/2000/svg">
<rect width="280" height="210" fill="#0A66C2"/>
<g clip-path="url(#clip0_2_2)">
<path d="M192.806 157.809H170.581V123.003C170.581 114.703 170.433 104.018 159.022 104.018C147.446 104.018 145.675 113.061 145.675 122.398V157.807H123.45V86.2304H144.786V96.0121H145.085C149.435 88.5732 157.525 84.1303 166.136 84.45C188.662 84.45 192.816 99.2672 192.816 118.543L192.806 157.809ZM98.3721 76.4464C91.2489 76.4477 85.4734 70.6741 85.4721 63.5508C85.4709 56.4275 91.2443 50.6519 98.3674 50.6506C105.491 50.6493 111.266 56.4229 111.267 63.5462C111.268 66.9669 109.91 70.2478 107.491 72.6671C105.073 75.0863 101.793 76.4458 98.3721 76.4464ZM109.485 157.809H87.2363V86.2304H109.485V157.809ZM203.887 30.0107H76.0681C70.0271 29.9425 65.0731 34.7816 64.9994 40.8226V169.174C65.0706 175.218 70.0242 180.062 76.0681 179.999H203.887C209.943 180.074 214.916 175.23 214.999 169.174V40.8133C214.913 34.7604 209.94 29.9216 203.887 30.0004" fill="white"/>
</g>
<defs>
<clipPath id="clip0_2_2">
<rect width="150" height="150" fill="white" transform="translate(65 30)"/>
</clipPath>
</defs>
</svg>
