<svg width="200" height="240" viewBox="0 0 200 240" fill="none" xmlns="http://www.w3.org/2000/svg">
<g clip-path="url(#clip0_2_2)">
<path d="M135.204 125.206H120.387V102.002C120.387 96.4683 120.289 89.3452 112.681 89.3452C104.964 89.3452 103.783 95.374 103.783 101.599V125.204H88.9664V77.4869H103.191V84.008H103.39C106.29 79.0488 111.683 76.0868 117.424 76.2999C132.442 76.2999 135.21 86.1781 135.21 99.0289L135.204 125.206ZM72.248 70.9642C67.4992 70.9651 63.6489 67.116 63.648 62.3671C63.6472 57.6183 67.4961 53.7678 72.2449 53.767C76.9937 53.7661 80.844 57.6152 80.8449 62.3641C80.8453 64.6445 79.9398 66.8318 78.3275 68.4446C76.7153 70.0575 74.5284 70.9638 72.248 70.9642ZM79.6564 125.206H64.8241V77.4869H79.6564V125.206ZM142.591 40.0071H57.3786C53.3513 39.9616 50.0487 43.1876 49.9995 47.215V132.783C50.047 136.812 53.3494 140.041 57.3786 139.999H142.591C146.628 140.049 149.944 136.82 150 132.783V47.2088C149.942 43.1735 146.626 39.9477 142.591 40.0002" fill="#0A66C2"/>
</g>
<path d="M44.9688 200V182.867H48.6016V197H54.8359V200H44.9688ZM64.2227 200H56.4297V197.938L58.5156 196.977V185.891L56.4297 184.93V182.867H64.2227V184.93L62.1367 185.891V196.977L64.2227 197.938V200ZM81.6367 200H77.0312L70.293 187.039H70.1875C70.2344 187.641 70.2734 188.238 70.3047 188.832C70.3359 189.34 70.3594 189.875 70.375 190.438C70.3984 190.992 70.4102 191.492 70.4102 191.938V200H67.1641V182.867H71.7461L78.4727 195.699H78.543C78.5195 195.105 78.4922 194.52 78.4609 193.941C78.4531 193.691 78.4414 193.438 78.4258 193.18C78.418 192.914 78.4102 192.652 78.4023 192.395C78.3945 192.129 78.3867 191.875 78.3789 191.633C78.3789 191.391 78.3789 191.172 78.3789 190.977V182.867H81.6367V200ZM99.0156 200H94.8906L90.9531 192.875L89.5938 193.883V200H85.9609V182.867H89.5938V191.117L91.0234 188.691L94.9375 182.867H98.9688L93.4961 190.59L99.0156 200ZM111.039 200H101.172V182.867H111.039V185.844H104.805V189.605H110.605V192.582H104.805V197H111.039V200ZM127.879 191.27C127.879 192.715 127.68 193.984 127.281 195.078C126.891 196.164 126.32 197.074 125.57 197.809C124.828 198.535 123.914 199.082 122.828 199.449C121.75 199.816 120.52 200 119.137 200H114.625V182.867H119.641C120.898 182.867 122.031 183.047 123.039 183.406C124.055 183.766 124.922 184.301 125.641 185.012C126.359 185.715 126.91 186.59 127.293 187.637C127.684 188.684 127.879 189.895 127.879 191.27ZM124.199 191.363C124.199 190.41 124.102 189.59 123.906 188.902C123.719 188.207 123.441 187.633 123.074 187.18C122.715 186.727 122.27 186.391 121.738 186.172C121.215 185.953 120.613 185.844 119.934 185.844H118.258V197H119.594C121.125 197 122.273 196.531 123.039 195.594C123.812 194.656 124.199 193.246 124.199 191.363ZM137.605 200H129.812V197.938L131.898 196.977V185.891L129.812 184.93V182.867H137.605V184.93L135.52 185.891V196.977L137.605 197.938V200ZM155.02 200H150.414L143.676 187.039H143.57C143.617 187.641 143.656 188.238 143.688 188.832C143.719 189.34 143.742 189.875 143.758 190.438C143.781 190.992 143.793 191.492 143.793 191.938V200H140.547V182.867H145.129L151.855 195.699H151.926C151.902 195.105 151.875 194.52 151.844 193.941C151.836 193.691 151.824 193.438 151.809 193.18C151.801 192.914 151.793 192.652 151.785 192.395C151.777 192.129 151.77 191.875 151.762 191.633C151.762 191.391 151.762 191.172 151.762 190.977V182.867H155.02V200Z" fill="#0A66C2"/>
<defs>
<clipPath id="clip0_2_2">
<rect width="100" height="100" fill="white" transform="translate(50 40)"/>
</clipPath>
</defs>
</svg>
