<svg width="200" height="240" viewBox="0 0 200 240" fill="none" xmlns="http://www.w3.org/2000/svg">
<g clip-path="url(#clip0_2_2)">
<path d="M142.245 132.247H124.465V104.402C124.465 97.762 124.346 89.2144 115.217 89.2144C105.957 89.2144 104.54 96.4489 104.54 103.919V132.245H86.7597V74.9843H103.829V82.8096H104.068C107.548 76.8586 114.02 73.3043 120.909 73.56C138.93 73.56 142.253 85.4138 142.253 100.835L142.245 132.247ZM66.6977 67.1571C60.9992 67.1581 56.3788 62.5393 56.3777 56.8406C56.3767 51.142 60.9954 46.5215 66.694 46.5205C72.3925 46.5194 77.0129 51.1383 77.0139 56.8369C77.0144 59.5735 75.9278 62.1982 73.9931 64.1336C72.0585 66.069 69.4342 67.1566 66.6977 67.1571ZM75.5878 132.247H57.789V74.9843H75.5878V132.247ZM151.109 30.0086H48.8545C44.0217 29.954 40.0585 33.8253 39.9995 38.6581V141.339C40.0565 146.175 44.0193 150.05 48.8545 149.999H151.109C155.954 150.059 159.932 146.184 160 141.339V38.6507C159.93 33.8083 155.952 29.9373 151.109 30.0004" fill="#0A66C2"/>
</g>
<path d="M44.9688 210V192.867H48.6016V207H54.8359V210H44.9688ZM64.2227 210H56.4297V207.938L58.5156 206.977V195.891L56.4297 194.93V192.867H64.2227V194.93L62.1367 195.891V206.977L64.2227 207.938V210ZM81.6367 210H77.0312L70.293 197.039H70.1875C70.2344 197.641 70.2734 198.238 70.3047 198.832C70.3359 199.34 70.3594 199.875 70.375 200.438C70.3984 200.992 70.4102 201.492 70.4102 201.938V210H67.1641V192.867H71.7461L78.4727 205.699H78.543C78.5195 205.105 78.4922 204.52 78.4609 203.941C78.4531 203.691 78.4414 203.438 78.4258 203.18C78.418 202.914 78.4102 202.652 78.4023 202.395C78.3945 202.129 78.3867 201.875 78.3789 201.633C78.3789 201.391 78.3789 201.172 78.3789 200.977V192.867H81.6367V210ZM99.0156 210H94.8906L90.9531 202.875L89.5938 203.883V210H85.9609V192.867H89.5938V201.117L91.0234 198.691L94.9375 192.867H98.9688L93.4961 200.59L99.0156 210ZM111.039 210H101.172V192.867H111.039V195.844H104.805V199.605H110.605V202.582H104.805V207H111.039V210ZM127.879 201.27C127.879 202.715 127.68 203.984 127.281 205.078C126.891 206.164 126.32 207.074 125.57 207.809C124.828 208.535 123.914 209.082 122.828 209.449C121.75 209.816 120.52 210 119.137 210H114.625V192.867H119.641C120.898 192.867 122.031 193.047 123.039 193.406C124.055 193.766 124.922 194.301 125.641 195.012C126.359 195.715 126.91 196.59 127.293 197.637C127.684 198.684 127.879 199.895 127.879 201.27ZM124.199 201.363C124.199 200.41 124.102 199.59 123.906 198.902C123.719 198.207 123.441 197.633 123.074 197.18C122.715 196.727 122.27 196.391 121.738 196.172C121.215 195.953 120.613 195.844 119.934 195.844H118.258V207H119.594C121.125 207 122.273 206.531 123.039 205.594C123.812 204.656 124.199 203.246 124.199 201.363ZM137.605 210H129.812V207.938L131.898 206.977V195.891L129.812 194.93V192.867H137.605V194.93L135.52 195.891V206.977L137.605 207.938V210ZM155.02 210H150.414L143.676 197.039H143.57C143.617 197.641 143.656 198.238 143.688 198.832C143.719 199.34 143.742 199.875 143.758 200.438C143.781 200.992 143.793 201.492 143.793 201.938V210H140.547V192.867H145.129L151.855 205.699H151.926C151.902 205.105 151.875 204.52 151.844 203.941C151.836 203.691 151.824 203.438 151.809 203.18C151.801 202.914 151.793 202.652 151.785 202.395C151.777 202.129 151.77 201.875 151.762 201.633C151.762 201.391 151.762 201.172 151.762 200.977V192.867H155.02V210Z" fill="#0A66C2"/>
<defs>
<clipPath id="clip0_2_2">
<rect width="120" height="120" fill="white" transform="translate(40 30)"/>
</clipPath>
</defs>
</svg>
