<svg width="200" height="240" viewBox="0 0 200 240" fill="none" xmlns="http://www.w3.org/2000/svg">
<g clip-path="url(#clip0_2_2)">
<path d="M152.806 147.809H130.581V113.003C130.581 104.703 130.433 94.018 119.022 94.018C107.446 94.018 105.675 103.061 105.675 112.398V147.807H83.4496V76.2304H104.786V86.0121H105.085C109.435 78.5732 117.525 74.1303 126.136 74.45C148.662 74.45 152.816 89.2672 152.816 108.543L152.806 147.809ZM58.3721 66.4464C51.2489 66.4477 45.4734 60.6741 45.4721 53.5508C45.4709 46.4275 51.2443 40.6519 58.3674 40.6506C65.4906 40.6493 71.2661 46.4229 71.2674 53.5462C71.268 56.9669 69.9097 60.2478 67.4914 62.6671C65.0731 65.0863 61.7927 66.4458 58.3721 66.4464ZM69.4847 147.809H47.2363V76.2304H69.4847V147.809ZM163.887 20.0107H36.0681C30.0271 19.9425 25.0731 24.7816 24.9994 30.8226V159.174C25.0706 165.218 30.0242 170.062 36.0681 169.999H163.887C169.943 170.074 174.916 165.23 174.999 159.174V30.8133C174.913 24.7604 169.94 19.9216 163.887 20.0004" fill="#0A66C2"/>
</g>
<path d="M22.0391 219V194.729H27.1855V214.75H36.0176V219H22.0391ZM49.3154 219H38.2754V216.078L41.2305 214.717V199.012L38.2754 197.65V194.729H49.3154V197.65L46.3604 199.012V214.717L49.3154 216.078V219ZM73.9854 219H67.4609L57.915 200.639H57.7656C57.832 201.491 57.8874 202.338 57.9316 203.179C57.9759 203.898 58.0091 204.656 58.0312 205.453C58.0645 206.239 58.0811 206.947 58.0811 207.578V219H53.4824V194.729H59.9736L69.5029 212.907H69.6025C69.5693 212.066 69.5306 211.236 69.4863 210.417C69.4753 210.063 69.4587 209.703 69.4365 209.338C69.4255 208.962 69.4144 208.591 69.4033 208.226C69.3923 207.849 69.3812 207.49 69.3701 207.146C69.3701 206.803 69.3701 206.493 69.3701 206.217V194.729H73.9854V219ZM98.6055 219H92.7617L87.1836 208.906L85.2578 210.334V219H80.1113V194.729H85.2578V206.416L87.2832 202.979L92.8281 194.729H98.5391L90.7861 205.669L98.6055 219ZM115.639 219H101.66V194.729H115.639V198.945H106.807V204.274H115.024V208.491H106.807V214.75H115.639V219ZM139.495 206.632C139.495 208.679 139.213 210.478 138.648 212.027C138.095 213.566 137.287 214.855 136.225 215.896C135.173 216.925 133.878 217.7 132.34 218.22C130.812 218.74 129.069 219 127.11 219H120.719V194.729H127.824C129.606 194.729 131.211 194.983 132.639 195.492C134.077 196.001 135.306 196.759 136.324 197.767C137.342 198.763 138.123 200.002 138.665 201.485C139.218 202.968 139.495 204.684 139.495 206.632ZM134.282 206.765C134.282 205.414 134.144 204.252 133.867 203.278C133.602 202.293 133.209 201.48 132.688 200.838C132.179 200.196 131.549 199.72 130.796 199.41C130.054 199.1 129.202 198.945 128.239 198.945H125.865V214.75H127.758C129.927 214.75 131.554 214.086 132.639 212.758C133.734 211.43 134.282 209.432 134.282 206.765ZM153.274 219H142.234V216.078L145.189 214.717V199.012L142.234 197.65V194.729H153.274V197.65L150.319 199.012V214.717L153.274 216.078V219ZM177.944 219H171.42L161.874 200.639H161.725C161.791 201.491 161.846 202.338 161.891 203.179C161.935 203.898 161.968 204.656 161.99 205.453C162.023 206.239 162.04 206.947 162.04 207.578V219H157.441V194.729H163.933L173.462 212.907H173.562C173.528 212.066 173.49 211.236 173.445 210.417C173.434 210.063 173.418 209.703 173.396 209.338C173.384 208.962 173.373 208.591 173.362 208.226C173.351 207.849 173.34 207.49 173.329 207.146C173.329 206.803 173.329 206.493 173.329 206.217V194.729H177.944V219Z" fill="#0A66C2"/>
<defs>
<clipPath id="clip0_2_2">
<rect width="150" height="150" fill="white" transform="translate(25 20)"/>
</clipPath>
</defs>
</svg>
