<svg width="200" height="290" viewBox="0 0 200 290" fill="none" xmlns="http://www.w3.org/2000/svg">
<g clip-path="url(#clip0_2_2)">
<path d="M152.807 167.809H130.581V133.002C130.581 124.703 130.433 114.018 119.022 114.018C107.446 114.018 105.675 123.061 105.675 132.398V167.807H83.4497V96.2304H104.786V106.012H105.085C109.435 98.5732 117.525 94.1303 126.136 94.45C148.662 94.45 152.816 109.267 152.816 128.543L152.807 167.809ZM58.3721 86.4464C51.2489 86.4477 45.4734 80.6741 45.4722 73.5508C45.4709 66.4275 51.2443 60.6519 58.3675 60.6506C65.4906 60.6493 71.2661 66.4229 71.2674 73.5462C71.268 76.9669 69.9098 80.2478 67.4914 82.6671C65.0731 85.0863 61.7928 86.4458 58.3721 86.4464ZM69.4848 167.809H47.2363V96.2304H69.4848V167.809ZM163.887 40.0107H36.0681C30.0271 39.9425 25.0731 44.7816 24.9994 50.8226V179.174C25.0706 185.218 30.0242 190.062 36.0681 189.999H163.887C169.943 190.074 174.916 185.23 174.999 179.174V50.8134C174.913 44.7604 169.94 39.9216 163.887 40.0005" fill="#0A66C2"/>
</g>
<path d="M44.9688 250V232.867H48.6016V247H54.8359V250H44.9688ZM64.2227 250H56.4297V247.938L58.5156 246.977V235.891L56.4297 234.93V232.867H64.2227V234.93L62.1367 235.891V246.977L64.2227 247.938V250ZM81.6367 250H77.0312L70.293 237.039H70.1875C70.2344 237.641 70.2734 238.238 70.3047 238.832C70.3359 239.34 70.3594 239.875 70.375 240.438C70.3984 240.992 70.4102 241.492 70.4102 241.938V250H67.1641V232.867H71.7461L78.4727 245.699H78.543C78.5195 245.105 78.4922 244.52 78.4609 243.941C78.4531 243.691 78.4414 243.438 78.4258 243.18C78.418 242.914 78.4102 242.652 78.4023 242.395C78.3945 242.129 78.3867 241.875 78.3789 241.633C78.3789 241.391 78.3789 241.172 78.3789 240.977V232.867H81.6367V250ZM99.0156 250H94.8906L90.9531 242.875L89.5938 243.883V250H85.9609V232.867H89.5938V241.117L91.0234 238.691L94.9375 232.867H98.9688L93.4961 240.59L99.0156 250ZM111.039 250H101.172V232.867H111.039V235.844H104.805V239.605H110.605V242.582H104.805V247H111.039V250ZM127.879 241.27C127.879 242.715 127.68 243.984 127.281 245.078C126.891 246.164 126.32 247.074 125.57 247.809C124.828 248.535 123.914 249.082 122.828 249.449C121.75 249.816 120.52 250 119.137 250H114.625V232.867H119.641C120.898 232.867 122.031 233.047 123.039 233.406C124.055 233.766 124.922 234.301 125.641 235.012C126.359 235.715 126.91 236.59 127.293 237.637C127.684 238.684 127.879 239.895 127.879 241.27ZM124.199 241.363C124.199 240.41 124.102 239.59 123.906 238.902C123.719 238.207 123.441 237.633 123.074 237.18C122.715 236.727 122.27 236.391 121.738 236.172C121.215 235.953 120.613 235.844 119.934 235.844H118.258V247H119.594C121.125 247 122.273 246.531 123.039 245.594C123.812 244.656 124.199 243.246 124.199 241.363ZM137.605 250H129.812V247.938L131.898 246.977V235.891L129.812 234.93V232.867H137.605V234.93L135.52 235.891V246.977L137.605 247.938V250ZM155.02 250H150.414L143.676 237.039H143.57C143.617 237.641 143.656 238.238 143.688 238.832C143.719 239.34 143.742 239.875 143.758 240.438C143.781 240.992 143.793 241.492 143.793 241.938V250H140.547V232.867H145.129L151.855 245.699H151.926C151.902 245.105 151.875 244.52 151.844 243.941C151.836 243.691 151.824 243.438 151.809 243.18C151.801 242.914 151.793 242.652 151.785 242.395C151.777 242.129 151.77 241.875 151.762 241.633C151.762 241.391 151.762 241.172 151.762 240.977V232.867H155.02V250Z" fill="#0A66C2"/>
<defs>
<clipPath id="clip0_2_2">
<rect width="150" height="150" fill="white" transform="translate(25 40)"/>
</clipPath>
</defs>
</svg>
