<svg width="200" height="240" viewBox="0 0 200 240" fill="none" xmlns="http://www.w3.org/2000/svg">
<g clip-path="url(#clip0_2_2)">
<path d="M145.766 140.768H126.504V110.602C126.504 103.409 126.375 94.1488 116.485 94.1488C106.453 94.1488 104.918 101.986 104.918 110.078V140.766H85.6563V78.7329H104.148V87.2104H104.407C108.177 80.7634 115.188 76.9129 122.651 77.1899C142.174 77.1899 145.774 90.0315 145.774 106.738L145.766 140.768ZM63.9224 70.2535C57.749 70.2546 52.7435 65.2508 52.7424 59.0773C52.7413 52.9038 57.745 47.8982 63.9184 47.8971C70.0918 47.896 75.0972 52.8997 75.0983 59.0733C75.0988 62.0379 73.9217 64.8813 71.8258 66.978C69.7299 69.0747 66.887 70.2529 63.9224 70.2535ZM73.5533 140.768H54.2714V78.7329H73.5533V140.768ZM155.368 30.0092H44.5922C39.3567 29.9501 35.0633 34.144 34.9994 39.3795V150.618C35.0611 155.856 39.3542 160.054 44.5922 159.999H155.368C160.617 160.064 164.927 155.866 164.999 150.618V39.3715C164.925 34.1256 160.614 29.932 155.368 30.0003" fill="#0A66C2"/>
</g>
<path d="M35.7969 211V191.012H40.0352V207.5H47.3086V211H35.7969ZM58.2598 211H49.168V208.594L51.6016 207.473V194.539L49.168 193.418V191.012H58.2598V193.418L55.8262 194.539V207.473L58.2598 208.594V211ZM78.5762 211H73.2031L65.3418 195.879H65.2188C65.2734 196.581 65.319 197.278 65.3555 197.971C65.3919 198.563 65.4193 199.188 65.4375 199.844C65.4648 200.491 65.4785 201.074 65.4785 201.594V211H61.6914V191.012H67.0371L74.8848 205.982H74.9668C74.9395 205.29 74.9076 204.606 74.8711 203.932C74.862 203.64 74.8483 203.344 74.8301 203.043C74.821 202.733 74.8118 202.428 74.8027 202.127C74.7936 201.817 74.7845 201.521 74.7754 201.238C74.7754 200.956 74.7754 200.701 74.7754 200.473V191.012H78.5762V211ZM98.8516 211H94.0391L89.4453 202.688L87.8594 203.863V211H83.6211V191.012H87.8594V200.637L89.5273 197.807L94.0938 191.012H98.7969L92.4121 200.021L98.8516 211ZM112.879 211H101.367V191.012H112.879V194.484H105.605V198.873H112.373V202.346H105.605V207.5H112.879V211ZM132.525 200.814C132.525 202.501 132.293 203.982 131.828 205.258C131.372 206.525 130.707 207.587 129.832 208.443C128.966 209.291 127.9 209.929 126.633 210.357C125.375 210.786 123.939 211 122.326 211H117.062V191.012H122.914C124.382 191.012 125.703 191.221 126.879 191.641C128.064 192.06 129.076 192.684 129.914 193.514C130.753 194.334 131.395 195.355 131.842 196.576C132.298 197.798 132.525 199.21 132.525 200.814ZM128.232 200.924C128.232 199.812 128.118 198.855 127.891 198.053C127.672 197.242 127.348 196.572 126.92 196.043C126.501 195.514 125.981 195.122 125.361 194.867C124.751 194.612 124.049 194.484 123.256 194.484H121.301V207.5H122.859C124.646 207.5 125.986 206.953 126.879 205.859C127.781 204.766 128.232 203.12 128.232 200.924ZM143.873 211H134.781V208.594L137.215 207.473V194.539L134.781 193.418V191.012H143.873V193.418L141.439 194.539V207.473L143.873 208.594V211ZM164.189 211H158.816L150.955 195.879H150.832C150.887 196.581 150.932 197.278 150.969 197.971C151.005 198.563 151.033 199.188 151.051 199.844C151.078 200.491 151.092 201.074 151.092 201.594V211H147.305V191.012H152.65L160.498 205.982H160.58C160.553 205.29 160.521 204.606 160.484 203.932C160.475 203.64 160.462 203.344 160.443 203.043C160.434 202.733 160.425 202.428 160.416 202.127C160.407 201.817 160.398 201.521 160.389 201.238C160.389 200.956 160.389 200.701 160.389 200.473V191.012H164.189V211Z" fill="#0A66C2"/>
<defs>
<clipPath id="clip0_2_2">
<rect width="130" height="130" fill="white" transform="translate(35 30)"/>
</clipPath>
</defs>
</svg>
