<svg width="280" height="210" viewBox="0 0 280 210" fill="none" xmlns="http://www.w3.org/2000/svg">
<rect width="280" height="210" fill="#12100E"/>
<path d="M215 30H65V180H215V30Z" fill="white"/>
<path d="M100.795 80.166C100.921 78.929 100.449 77.7063 99.5252 76.8738L90.1163 65.5393V63.8462H119.331L141.912 113.37L161.765 63.8462H189.615V65.5393L181.571 73.2524C180.877 73.781 180.533 74.6499 180.677 75.5099V132.182C180.533 133.042 180.877 133.911 181.571 134.44L189.427 142.153V143.846H149.91V142.153L158.049 134.252C158.848 133.452 158.848 133.217 158.848 131.994V86.186L136.22 143.658H133.162L106.817 86.186V124.704C106.597 126.324 107.135 127.954 108.275 129.125L118.86 141.965V143.658H88.8461V141.965L99.4311 129.125C100.563 127.952 101.07 126.311 100.795 124.704V80.166Z" fill="#12100E"/>
</svg>
