<svg width="280" height="210" viewBox="0 0 280 210" fill="none" xmlns="http://www.w3.org/2000/svg">
<rect width="280" height="210" fill="#FFC017"/>
<path d="M94.3432 45C127.118 45 153.684 71.7522 153.684 104.75C153.684 137.749 127.116 164.499 94.3432 164.499C61.5708 164.499 35 137.749 35 104.75C35 71.7522 61.5688 45 94.3432 45ZM189.11 48.5C205.497 48.5 218.782 73.6817 218.782 104.75H218.784C218.784 135.811 205.499 161.001 189.112 161.001C172.725 161.001 159.441 135.811 159.441 104.75C159.441 73.6897 172.723 48.5 189.11 48.5ZM234.975 54.3589C240.738 54.3589 245.411 76.9196 245.411 104.75C245.411 132.573 240.74 155.142 234.975 155.142C229.211 155.142 224.542 132.579 224.542 104.75C224.542 76.9216 229.213 54.3589 234.975 54.3589Z" fill="#12100E"/>
</svg>
