<svg width="280" height="210" viewBox="0 0 280 210" fill="none" xmlns="http://www.w3.org/2000/svg">
<rect width="280" height="210" fill="#208560"/>
<path d="M140.113 35C107.971 35 80.5996 55.6979 71.4914 84.2233H81.6608C82.7172 81.4039 83.9804 78.6872 85.4422 76.0835H105.012C104.158 78.746 103.457 81.4695 102.875 84.2233H112.788C113.481 81.4481 114.307 78.7229 115.288 76.0835H134.174V84.2233H143.745V76.0835H164.148C165.246 78.7252 166.169 81.4458 166.947 84.2233H176.86C176.194 81.4666 175.419 78.7484 174.467 76.0835H194.785C196.247 78.6877 197.509 81.4033 198.566 84.2233H208.714C199.606 55.698 172.255 35 140.113 35ZM154.556 46.259C167.952 49.3394 179.653 56.5636 188.119 66.5123H170.365C166.4 58.8413 161.147 51.918 154.556 46.259V46.259ZM122.872 46.964C116.939 52.4714 112.259 59.1399 108.772 66.5123H92.1079C99.9797 57.2618 110.645 50.368 122.872 46.964ZM143.745 50.0404C150.056 54.36 155.147 60.0564 159.192 66.5123H143.745V50.0404ZM134.174 50.1045V66.5123H119.753C123.458 60.0415 128.188 54.3595 134.174 50.1045ZM74.3542 93.474C73.4018 93.474 72.6062 93.6889 71.9614 94.1363C71.3166 94.5836 71 95.141 71 95.7813C71 96.2605 71.138 96.9245 71.4487 97.7896L76.5333 112.403C76.6882 112.84 76.8665 113.332 77.0675 113.855C77.2684 114.379 77.5491 114.844 77.8793 115.244C78.2094 115.644 78.6587 115.952 79.2252 116.184C79.7917 116.417 80.5031 116.526 81.3617 116.526C82.4264 116.526 83.2627 116.333 83.904 115.949C84.5453 115.565 85.003 115.153 85.25 114.689C85.4969 114.225 85.8041 113.51 86.19 112.531L90.7406 99.7123L95.2698 112.595C95.6468 113.55 95.9472 114.254 96.1885 114.71C96.4296 115.166 96.8717 115.592 97.513 115.971C98.1543 116.349 99.0075 116.526 100.077 116.526C101.201 116.526 102.082 116.341 102.705 115.949C103.327 115.557 103.763 115.115 104.008 114.625C104.252 114.134 104.539 113.386 104.884 112.403L109.968 97.7896C110.283 96.8722 110.438 96.2082 110.438 95.7813C110.438 95.1297 110.108 94.578 109.456 94.1363C108.803 93.6946 108.02 93.474 107.084 93.474C106.146 93.474 105.422 93.6401 104.926 93.9867C104.431 94.3334 104.09 94.7101 103.901 95.119C103.712 95.528 103.516 96.0684 103.324 96.7213L99.7349 109.155L95.7185 97.5118C95.3431 96.534 95.0383 95.8316 94.7998 95.3754C94.5612 94.9193 94.1004 94.4767 93.4538 94.0722C92.8072 93.6677 91.9054 93.474 90.7406 93.474C89.5952 93.474 88.7004 93.6611 88.0273 94.0508C87.3542 94.4406 86.8734 94.8975 86.5959 95.3968C86.3184 95.8961 86.0154 96.5907 85.6772 97.5118L81.6821 109.155L78.0716 96.6359C77.7892 95.6864 77.4228 94.9311 76.982 94.3499C76.5412 93.7688 75.6695 93.474 74.3542 93.474V93.474ZM123.556 93.474C122.604 93.474 121.808 93.6889 121.163 94.1363C120.518 94.5836 120.202 95.141 120.202 95.7813C120.202 96.2605 120.361 96.9245 120.672 97.7896L125.757 112.403C125.911 112.84 126.09 113.332 126.291 113.855C126.492 114.379 126.751 114.844 127.081 115.244C127.411 115.644 127.861 115.952 128.427 116.184C128.994 116.417 129.705 116.526 130.564 116.526C131.628 116.526 132.486 116.333 133.127 115.949C133.769 115.565 134.205 115.153 134.452 114.689C134.699 114.225 135.006 113.51 135.392 112.531L139.942 99.7123L144.472 112.595C144.849 113.55 145.149 114.254 145.39 114.71C145.632 115.166 146.074 115.592 146.715 115.971C147.356 116.349 148.209 116.526 149.279 116.526C150.403 116.526 151.284 116.341 151.906 115.949C152.529 115.557 152.965 115.115 153.21 114.625C153.454 114.134 153.741 113.386 154.086 112.403L159.17 97.7896C159.485 96.8722 159.64 96.2082 159.64 95.7813C159.64 95.1297 159.31 94.578 158.658 94.1363C158.005 93.6946 157.222 93.474 156.286 93.474C155.348 93.474 154.624 93.6401 154.128 93.9867C153.633 94.3334 153.292 94.7101 153.103 95.119C152.913 95.528 152.718 96.0684 152.526 96.7213L148.937 109.155L144.92 97.5118C144.545 96.534 144.24 95.8316 144.002 95.3754C143.763 94.9193 143.324 94.4767 142.677 94.0722C142.03 93.6677 141.129 93.474 139.964 93.474C138.818 93.474 137.902 93.6611 137.229 94.0508C136.556 94.4406 136.075 94.8975 135.798 95.3968C135.52 95.8961 135.217 96.5907 134.879 97.5118L130.884 109.155L127.273 96.6359C126.991 95.6864 126.646 94.9311 126.205 94.3499C125.764 93.7688 124.871 93.474 123.556 93.474V93.474ZM172.758 93.474C171.806 93.474 171.01 93.6889 170.365 94.1363C169.72 94.5836 169.404 95.141 169.404 95.7813C169.404 96.2605 169.563 96.9245 169.874 97.7896L174.958 112.403C175.113 112.84 175.292 113.332 175.493 113.855C175.693 114.379 175.953 114.844 176.283 115.244C176.613 115.644 177.063 115.952 177.629 116.184C178.195 116.417 178.907 116.526 179.765 116.526C180.83 116.526 181.688 116.333 182.329 115.949C182.97 115.565 183.407 115.153 183.654 114.689C183.901 114.225 184.229 113.51 184.615 112.531L189.144 99.7123L193.674 112.595C194.051 113.55 194.351 114.254 194.592 114.71C194.833 115.166 195.276 115.592 195.917 115.971C196.558 116.349 197.411 116.526 198.481 116.526C199.605 116.526 200.486 116.341 201.108 115.949C201.731 115.557 202.167 115.115 202.412 114.625C202.656 114.134 202.943 113.386 203.287 112.403L208.372 97.7896C208.687 96.8722 208.842 96.2082 208.842 95.7813C208.842 95.1297 208.534 94.578 207.881 94.1363C207.228 93.6946 206.424 93.474 205.488 93.474C204.55 93.474 203.826 93.6401 203.33 93.9867C202.835 94.3334 202.494 94.7101 202.305 95.119C202.115 95.528 201.92 96.0684 201.728 96.7213L198.16 109.155L194.122 97.5118C193.747 96.534 193.442 95.8316 193.204 95.3754C192.965 94.9193 192.526 94.4767 191.879 94.0722C191.232 93.6677 190.33 93.474 189.166 93.474C188.02 93.474 187.104 93.6611 186.431 94.0508C185.758 94.4406 185.277 94.8975 185 95.3968C184.722 95.8961 184.419 96.5907 184.081 97.5118L180.086 109.155L176.497 96.6359C176.214 95.6864 175.848 94.9311 175.407 94.3499C174.966 93.7688 174.073 93.474 172.758 93.474V93.474ZM71.1282 124.516C79.8235 153.686 107.499 175 140.113 175C172.728 175 200.404 153.686 209.099 124.516H198.993C198.03 127.267 196.878 129.927 195.532 132.485H175.023C175.896 129.877 176.616 127.211 177.223 124.516H167.46C166.778 127.241 165.961 129.903 164.96 132.485H143.745V124.516H134.174V132.485H114.797C113.918 129.913 113.162 127.248 112.532 124.516H102.705C103.255 127.214 103.927 129.877 104.691 132.485H84.6945C83.3487 129.927 82.1757 127.267 81.2121 124.516H71.1282V124.516ZM90.9756 142.056H108.131C111.632 150.155 116.275 157.389 122.253 162.886C109.667 159.246 98.8191 151.858 90.9756 142.056ZM118.792 142.056H134.174V159.938C127.958 155.998 122.759 149.716 118.792 142.056ZM143.745 142.056H160.196C156.019 149.038 150.588 155.078 143.745 159.49V142.056ZM171.198 142.056H189.251C180.612 152.852 168.311 160.712 154.086 163.869C161.385 157.967 167.057 150.452 171.198 142.056Z" fill="white"/>
</svg>
